Coordinates
version=1
nRows=7
nColumns=60
inDegrees=yes

Units are S.I. units (second, meters, Newtons, ...)
If the header above contains a line with 'inDegrees', this indicates whether rotational values are in degrees (yes) or radians (no).

endheader
time	pelvis_tilt	pelvis_list	pelvis_rotation	pelvis_tx	pelvis_ty	pelvis_tz	hip_flexion_r	hip_adduction_r	hip_rotation_r	knee_angle_r_beta	knee_angle_r	ankle_angle_r	subtalar_angle_r	mtp_angle_r	hip_flexion_l	hip_adduction_l	hip_rotation_l	knee_angle_l_beta	knee_angle_l	ankle_angle_l	subtalar_angle_l	mtp_angle_l	L5_S1_Flex_Ext	L5_S1_Lat_Bending	L5_S1_axial_rotation	L4_L5_Flex_Ext	L4_L5_Lat_Bending	L4_L5_axial_rotation	L3_L4_Flex_Ext	L3_L4_Lat_Bending	L3_L4_axial_rotation	L2_L3_Flex_Ext	L2_L3_Lat_Bending	L2_L3_axial_rotation	L1_L2_Flex_Ext	L1_L2_Lat_Bending	L1_L2_axial_rotation	L1_T12_Flex_Ext	L1_T12_Lat_Bending	L1_T12_axial_rotation	Abs_r3	Abs_r2	Abs_r1	Abs_t1	Abs_t2	arm_flex_r	arm_add_r	arm_rot_r	elbow_flex_r	pro_sup_r	wrist_flex_r	wrist_dev_r	arm_flex_l	arm_add_l	arm_rot_l	elbow_flex_l	pro_sup_l	wrist_flex_l	wrist_dev_l
     26.30000000	      0.70381795	    -13.70217145	     93.30790047	      0.39998753	      0.85531819	      0.41597028	     47.00748855	     -6.30613901	      1.31749383	      0.67287775	    -38.55305539	      7.83511555	      0.00000000	      0.00000000	     47.76875201	     -4.53656353	      1.66620769	      0.64497621	    -36.95441451	      6.89507163	      0.00000000	      0.00000000	    -11.23663638	      0.32649321	      0.02058049	    -20.86755743	      0.43423597	      0.02186677	    -18.46066991	      0.79383560	      0.02186677	    -12.84235172	      0.79383560	      0.01800793	    -10.43434055	      0.66578496	      0.01672165	     -6.42061403	      0.50573799	      0.01543537	    -80.26217002	      3.69335652	      0.11446252	      0.00000000	      0.00000000	     87.17916788	    -16.30482389	     19.22924097	     35.36706613	     74.41284920	     21.63923586	     -1.18564783	     94.00722562	    -16.74763682	     42.17584715	     27.11567742	     56.96240247	     26.31329356	     -8.63582704
     26.31000000	      0.77551698	    -13.71483981	     93.30225681	      0.39997710	      0.85492925	      0.41582096	     47.08959969	     -6.28323731	      1.15593353	      0.67506882	    -38.67859408	      7.82876999	      0.00000000	      0.00000000	     47.92777999	     -4.61073169	      1.68898240	      0.64965991	    -37.22277079	      6.95008987	      0.00000000	      0.00000000	    -11.25010596	      0.33114484	      0.03530018	    -20.89257177	      0.44042264	      0.03750644	    -18.48279908	      0.80514556	      0.03750644	    -12.85774610	      0.80514556	      0.03088765	    -10.44684839	      0.67527056	      0.02868139	     -6.42831054	      0.51294336	      0.02647513	    -80.35838184	      3.74597666	      0.19632899	      0.00000000	      0.00000000	     86.76909778	    -16.33919276	     18.68149174	     36.05067347	     73.63227583	     21.58044567	     -1.23316327	     93.80208476	    -16.78835386	     41.52854251	     27.54855767	     56.66880902	     26.34730337	     -8.62740394
     26.32000000	      0.87286008	    -13.72792880	     93.32187169	      0.39999174	      0.85451135	      0.41562257	     47.16119362	     -6.23455846	      1.03429974	      0.67744319	    -38.81463539	      7.84721878	      0.00000000	      0.00000000	     48.09368266	     -4.72013012	      1.65496098	      0.65417101	    -37.48123791	      7.04510677	      0.00000000	      0.00000000	    -11.25721807	      0.33728493	      0.05231305	    -20.90577968	      0.44858896	      0.05558261	    -18.49448357	      0.82007458	      0.05558261	    -12.86587454	      0.82007458	      0.04577392	    -10.45345270	      0.68779143	      0.04250435	     -6.43237441	      0.52245436	      0.03923479	    -80.40918297	      3.81543461	      0.29094948	      0.00000000	      0.00000000	     86.18730541	    -16.32322677	     17.80633960	     36.84723187	     72.92797750	     21.45040451	     -1.24737416	     93.52830086	    -16.87897372	     40.80270303	     28.13500533	     56.50675100	     26.40034262	     -8.55736652
     26.33000000	      0.83163774	    -13.75065947	     93.25075040	      0.40002521	      0.85420042	      0.41542938	     47.26834712	     -6.25523917	      1.00435320	      0.67991070	    -38.95601378	      7.87013637	      0.00000000	      0.00000000	     48.19243589	     -4.73763412	      1.55744241	      0.65706224	    -37.64689339	      7.04457540	      0.00000000	      0.00000000	    -11.26408005	      0.33090275	      0.06053445	    -20.91852305	      0.44010066	      0.06431786	    -18.50575711	      0.80455695	      0.06431786	    -12.87371708	      0.80455695	      0.05296765	    -10.45982473	      0.67477689	      0.04918424	     -6.43629534	      0.51256836	      0.04540084	    -80.45819735	      3.74323811	      0.33667447	      0.00000000	      0.00000000	     85.61166393	    -16.09712155	     15.92701597	     37.61747724	     75.11584253	     20.74549132	     -0.66062186	     93.16900995	    -16.86103313	     39.16655822	     28.68441581	     59.00360718	     26.30115030	     -7.74893042
     26.34000000	      0.85751827	    -13.74805570	     93.26686888	      0.39992513	      0.85401612	      0.41523783	     47.27611501	     -6.25515186	      1.00681125	      0.68008952	    -38.96625891	      7.86733549	      0.00000000	      0.00000000	     48.20256009	     -4.76179988	      1.55894847	      0.65745936	    -37.66964631	      7.05127637	      0.00000000	      0.00000000	    -11.26834838	      0.33458837	      0.05978139	    -20.92644977	      0.44500253	      0.06351773	    -18.51276955	      0.81351816	      0.06351773	    -12.87859536	      0.81351816	      0.05230872	    -10.46378830	      0.68229260	      0.04857238	     -6.43873426	      0.51827738	      0.04483604	    -80.48868562	      3.78493055	      0.33248616	      0.00000000	      0.00000000	     85.22114490	    -16.10315601	     15.70744236	     38.21893098	     74.33630890	     20.74863960	     -0.65330668	     92.99436052	    -16.85142247	     38.64329064	     28.80163920	     58.54819689	     26.30945802	     -7.75220338
     26.35000000	      0.99454427	    -13.74487684	     93.32279106	      0.39990306	      0.85359923	      0.41498715	     47.33732397	     -6.19229803	      0.81872580	      0.68305246	    -39.13602330	      7.87464849	      0.00000000	      0.00000000	     48.41280927	     -4.89272106	      1.54855595	      0.66375332	    -38.03026366	      7.16151335	      0.00000000	      0.00000000	    -11.26782168	      0.34732369	      0.08619572	    -20.92547163	      0.46194051	      0.09158295	    -18.51190423	      0.84448282	      0.09158295	    -12.87799339	      0.84448282	      0.07542126	    -10.46329921	      0.70826247	      0.07003402	     -6.43843331	      0.53800440	      0.06464679	    -80.48492344	      3.92899505	      0.47939474	      0.00000000	      0.00000000	     84.50428341	    -15.94408623	     14.04353587	     39.22371781	     75.79802315	     20.12273703	      0.18732685	     92.51432354	    -16.90109215	     37.19455047	     29.70886643	     60.67980294	     25.97204747	     -6.90549615
     26.36000000	      1.02546834	    -13.68634255	     93.35019688	      0.39979371	      0.85344889	      0.41477012	     47.31138790	     -6.18579150	      0.79357862	      0.68461548	    -39.22557746	      7.87314432	      0.00000000	      0.00000000	     48.41791258	     -4.91899019	      1.51773040	      0.66574667	    -38.14447438	      7.17848493	      0.00000000	      0.00000000	    -11.27013913	      0.35413681	      0.09923186	    -20.92977538	      0.47100196	      0.10543386	    -18.51571158	      0.86104825	      0.10543386	    -12.88064201	      0.86104825	      0.08682788	    -10.46545120	      0.72215579	      0.08062589	     -6.43975750	      0.54855793	      0.07442390	    -80.50147679	      4.00606647	      0.55189786	      0.00000000	      0.00000000	     84.17373418	    -15.99225095	     13.83414586	     39.61042919	     75.24735617	     20.10705288	      0.20861149	     92.30147821	    -16.82989192	     36.81063670	     29.90373864	     60.36049675	     25.97564867	     -6.89236311
